<svg width="52" height="51" viewBox="0 0 52 51" fill="none" xmlns="http://www.w3.org/2000/svg">
<rect width="52" height="51" rx="11" fill="white"/>
<path d="M42 17.6667V37.6667C42 38.5833 41.6519 39.3681 40.9556 40.0208C40.2593 40.6736 39.4222 41 38.4444 41H13.5556C12.5778 41 11.7407 40.6736 11.0444 40.0208C10.3481 39.3681 10 38.5833 10 37.6667V14.3333C10 13.4167 10.3481 12.6319 11.0444 11.9792C11.7407 11.3264 12.5778 11 13.5556 11H34.8889L42 17.6667ZM38.4444 19.0833L33.3778 14.3333H13.5556V37.6667H38.4444V19.0833ZM26 36C27.4815 36 28.7407 35.5139 29.7778 34.5417C30.8148 33.5694 31.3333 32.3889 31.3333 31C31.3333 29.6111 30.8148 28.4306 29.7778 27.4583C28.7407 26.4861 27.4815 26 26 26C24.5185 26 23.2593 26.4861 22.2222 27.4583C21.1852 28.4306 20.6667 29.6111 20.6667 31C20.6667 32.3889 21.1852 33.5694 22.2222 34.5417C23.2593 35.5139 24.5185 36 26 36ZM15.3333 22.6667H31.3333V16H15.3333V22.6667ZM13.5556 19.0833V37.6667V14.3333V19.0833Z" fill="#BFBEFF"/>
</svg>